<svg width="30" height="18" viewBox="5 -40  70 55" overflow="visible" xmlns="http://www.w3.org/2000/svg">
    <g transform="matrix(1 0 0 -1 0 0)" fill="none">
        <path d="M 59 -10 A 15 15 0 1  1  30 -10" color="#4682b4" stroke="currentColor" stroke-width="0.25em"/>
        <circle cx="44.5" cy="16" r="7.7" color="#4682b4" stroke="currentColor" stroke-width="0.25em"/>
        <line x1="16" y1="33" x2="18" y2="37" color="#000080" stroke="currentColor" stroke-width="0.25em"/>
        <line x1="18" y1="37" x2="30" y2="30" color="#000080" stroke="currentColor" stroke-width="0.25em"/>
        <line x1="30" y1="30" x2="28" y2="26" color="#000080" stroke="currentColor" stroke-width="0.25em"/>
        <line x1="16" y1="33" x2="28" y2="26" color="#000080" stroke="currentColor" stroke-width="0.25em"/>
        <line x1="26" y1="23" x2="15" y2="5" color="#000080" stroke="currentColor" stroke-width="0.25em"/>
        <line x1="15" y1="5" x2="3" y2="12" color="#000080" stroke="currentColor" stroke-width="0.25em"/>
        <line x1="3" y1="12" x2="14" y2="30" color="#000080" stroke="currentColor" stroke-width="0.25em"/>
        <line x1="2" y1="10" x2="-2" y2="-10" color="#000080" stroke="currentColor" stroke-width="0.25em"/>
        <line x1="-2" y1="-10" x2="14" y2="3" color="#000080" stroke="currentColor" stroke-width="0.25em"/>
        <line x1="2" y1="10" x2="14" y2="3" color="#000080" stroke="currentColor" stroke-width="0.25em"/>
        <line x1="14" y1="30" x2="26" y2="23" color="#000080" stroke="currentColor" stroke-width="0.25em"/>
        <line x1="30" y1="-10" x2="58" y2="-10" color="#4682b4" stroke="currentColor" stroke-width="0.25em"/>
    </g>
</svg>