<svg  width="55" height="40" xmlns="http://www.w3.org/2000/svg" x="0px" y="0px"
	 viewBox="0 0 42.5 42.5" >
<style type="text/css">
	.st0{fill:none;stroke:#000080; stroke-width:0.1em;}
</style>
<rect x="8.9" y="2.4" class="st0" width="24.8" height="38.3"/>
<rect x="33.7" y="3.1" class="st0" width="4.1" height="6.3"/>
<rect x="33.7" y="11.4" class="st0" width="3.7" height="5.2"/>
<rect x="33.7" y="18.6" class="st0" width="3.2" height="3.9"/>
<rect x="9.1" y="35" class="st0" width="5.7" height="0.1"/>
<path class="st0" d="M8.8,35c-1.8,0-3.2,0.9-3.2,2.1c0,1.1,1.5,2.1,3.3,2.1"/>
<rect x="9.1" y="26" class="st0" width="5.7" height="0.1"/>
<rect x="9.1" y="8.1" class="st0" width="5.7" height="0.1"/>
<rect x="9.1" y="17" class="st0" width="5.7" height="0.1"/>
<path class="st0" d="M8.8,26c-1.8,0-3.2,0.9-3.2,2.1c0,1.1,1.5,2.1,3.3,2.1"/>
<path class="st0" d="M8.8,17c-1.8,0-3.2,0.9-3.2,2.1c0,1.1,1.5,2.1,3.3,2.1"/>
<path class="st0" d="M8.8,8.1C7,8.1,5.6,9,5.6,10.1c0,1.1,1.5,2.1,3.3,2.1"/>
</svg>