<svg width="30" height="18" viewBox="-4 -55 48 58" overflow="visible" xmlns="http://www.w3.org/2000/svg">
    <g transform="matrix(1 0 0 -1 0 0)" fill="none">
        <path d="M 0 25.5 A 12 12 0 0  1  21 13" color="#000080" stroke="currentColor" stroke-width="0.25em"/>
        <path d="M 27 25 A 12 12 0 0  1  7 37" color="#000080" stroke="currentColor" stroke-width="0.25em"/>
        <line x1="0" y1="25" x2="20" y2="13" color="#000080" stroke="currentColor" stroke-width="0.25em"/>
        <line x1="27" y1="25" x2="7" y2="37" color="#000080" stroke="currentColor" stroke-width="0.25em"/>
        <line x1="12" y1="34" x2="7" y2="28" color="#000080" stroke="currentColor" stroke-width="0.35em"/>
        <line x1="21" y1="29" x2="16" y2="22" color="#000080" stroke="currentColor" stroke-width="0.35em"/>
        <line x1="-4" y1="3" x2="3.5" y2="-2" color="#000080" stroke="currentColor" stroke-width="0.25em"/>
        <line x1="3.5" y1="-2" x2="9" y2="8" color="#000080" stroke="currentColor" stroke-width="0.25em"/>
        <line x1="9" y1="8" x2="1.3" y2="12" color="#000080" stroke="currentColor" stroke-width="0.25em"/>
        <line x1="24" y1="53" x2="32" y2="48" color="#000080" stroke="currentColor" stroke-width="0.25em"/>
        <line x1="32" y1="48" x2="26" y2="38" color="#000080" stroke="currentColor" stroke-width="0.25em"/>
        <line x1="26" y1="38" x2="18" y2="43" color="#000080" stroke="currentColor" stroke-width="0.25em"/>
        <line x1="24" y1="53" x2="18" y2="43" color="#000080" stroke="currentColor" stroke-width="0.25em"/>
        <line x1="1.3" y1="12" x2="-4" y2="3" color="#000080" stroke="currentColor" stroke-width="0.25em"/>
    </g>
</svg>