<svg width="30" height="18" viewBox="-15 -54 78 65" overflow="visible" xmlns="http://www.w3.org/2000/svg">
    <g transform="matrix(1 0 0 -1 0 0)" fill="none">
        <path d="M 57 32 A 6.5 6.5 0 0  1  44 32" color="#4682b4" stroke="currentColor" stroke-width="0.25em"/>
        <path d="M 63 34 A 10.5 10.5 0 0  1  38 34" color="#4682b4" stroke="currentColor" stroke-width="0.25em"/>
        <ellipse color="#000080" stroke="currentColor" stroke-width="0.25em" cx="4" cy="39" rx="21" ry="9"/>
        <ellipse color="#4682b4" stroke="currentColor" stroke-width="0.25em" cx="40" cy="13" rx="18" ry="13" transform="rotate(1.5 40 13)"/>
        <line x1="-13" y1="34" x2="0" y2="20" color="#000080" stroke="currentColor" stroke-width="0.25em"/>
        <line x1="21" y1="34" x2="8" y2="20" color="#000080" stroke="currentColor" stroke-width="0.25em"/>
        <line x1="0" y1="20" x2="8" y2="20" color="#000080" stroke="currentColor" stroke-width="0.25em"/>
        <line x1="8" y1="0" x2="8" y2="20" color="#000080" stroke="currentColor" stroke-width="0.25em"/>
        <line x1="0" y1="20" x2="0" y2="0" color="#000080" stroke="currentColor" stroke-width="0.25em"/>
        <line x1="8" y1="0" x2="0" y2="0" color="#000080" stroke="currentColor" stroke-width="0.25em"/>
        <line x1="29" y1="17" x2="50" y2="17" color="#4682b4" stroke="currentColor" stroke-width="0.25em"/>
        <line x1="29" y1="10" x2="50" y2="10" color="#4682b4" stroke="currentColor" stroke-width="0.25em"/>
        <line x1="50" y1="24" x2="50" y2="33" color="#4682b4" stroke="currentColor" stroke-width="0.25em"/>
        <line x1="50" y1="33" x2="52" y2="33" color="#4682b4" stroke="currentColor" stroke-width="0.25em"/>
    </g>
</svg>