<svg width="30" height="18" viewBox="-5 -77 75 90" overflow="visible" xmlns="http://www.w3.org/2000/svg">
    <g transform="matrix(1 0 0 -1 0 0)" fill="none">
        <path d="M 77 0 A 19 19 0 1  1  39 0" color="#4682b4" stroke="currentColor" stroke-width="0.25em"/>
        <path d="M 45 15 A 14 14 0 0  1  20 6" color="#4682b4" stroke="currentColor" stroke-width="0.25em"/>
        <path d="M 96 6 A 14 14 0 0  1  71 14" color="#4682b4" stroke="currentColor" stroke-width="0.25em"/>
        <ellipse color="#000080" stroke="currentColor" stroke-width="0.35em" cx="1" cy="55" rx="31" ry="13"/>
        <circle cx="58" cy="33" r="10" color="#4682b4" stroke="currentColor" stroke-width="0.25em"/>
        <circle cx="82" cy="30" r="7" color="#4682b4" stroke="currentColor" stroke-width="0.25em"/>
        <circle cx="34" cy="30" r="7" color="#4682b4" stroke="currentColor" stroke-width="0.25em"/>
        <line x1="-24" y1="47" x2="-5" y2="29" color="#000080" stroke="currentColor" stroke-width="0.4em"/>
        <line x1="26" y1="47" x2="8" y2="29" color="#000080" stroke="currentColor" stroke-width="0.4em"/>
        <line x1="-5" y1="29" x2="8" y2="29" color="#000080" stroke="currentColor" stroke-width="0.4em"/>
        <line x1="8" y1="0" x2="8" y2="29" color="#000080" stroke="currentColor" stroke-width="0.4em"/>
        <line x1="-5" y1="29" x2="-5" y2="0" color="#000080" stroke="currentColor" stroke-width="0.4em"/>
        <line x1="8" y1="0" x2="-5" y2="0" color="#000080" stroke="currentColor" stroke-width="0.4em"/>
        <line x1="40" y1="0" x2="77" y2="0" color="#4682b4" stroke="currentColor" stroke-width="0.25em"/>
        <line x1="76" y1="6" x2="96" y2="6" color="#4682b4" stroke="currentColor" stroke-width="0.25em"/>
        <line x1="20" y1="6" x2="40" y2="6" color="#4682b4" stroke="currentColor" stroke-width="0.25em"/>
    </g>
</svg>