<svg width="30" height="18" viewBox="-30 -75 145 70" xmlns="http://www.w3.org/2000/svg" overflow="visible">
    <defs>
        <g id="U0">
            <line x1="0" y1="0" x2="48" y2="0" color="#000080" stroke="currentColor" stroke-width="0.25em"/>
            <line x1="48" y1="0" x2="48" y2="67" color="#000080" stroke="currentColor" stroke-width="0.25em"/>
            <line x1="48" y1="67" x2="0" y2="67" color="#000080" stroke="currentColor" stroke-width="0.25em"/>
            <line x1="0" y1="67" x2="0" y2="0" color="#000080" stroke="currentColor" stroke-width="0.25em"/>
        </g>
    </defs>
    <g transform="matrix(1 0 0 -1 0 0)">
        <line x1="7" y1="54" x2="41" y2="54" color="#000080" stroke="currentColor" stroke-width="0.25em"/>
        <line x1="7" y1="40" x2="41" y2="40" color="#000080" stroke="currentColor" stroke-width="0.25em"/>
        <line x1="7" y1="25" x2="41" y2="25" color="#000080" stroke="currentColor" stroke-width="0.25em"/>
        <line x1="7" y1="12" x2="41" y2="12" color="#000080" stroke="currentColor" stroke-width="0.25em"/>
        <line x1="5" y1="67" x2="5" y2="73" color="#000080" stroke="currentColor" stroke-width="0.25em"/>
        <line x1="5" y1="73" x2="55" y2="73" color="#000080" stroke="currentColor" stroke-width="0.25em"/>
        <line x1="55" y1="73" x2="55" y2="7" color="#000080" stroke="currentColor" stroke-width="0.25em"/>
        <line x1="55" y1="7" x2="48" y2="7" color="#000080" stroke="currentColor" stroke-width="0.25em"/>
        <line x1="55" y1="11" x2="60" y2="11" color="#000080" stroke="currentColor" stroke-width="0.25em"/>
        <line x1="60" y1="11" x2="60" y2="79" color="#000080" stroke="currentColor" stroke-width="0.25em"/>
        <line x1="60" y1="79" x2="11" y2="79" color="#000080" stroke="currentColor" stroke-width="0.25em"/>
        <line x1="11" y1="79" x2="11" y2="73" color="#000080" stroke="currentColor" stroke-width="0.25em"/>
        <use transform="translate(0 0)" stroke-width="0.017339935487057284" xmlns:xlink="http://www.w3.org/1999/xlink" xlink:href="#U0"/>
    </g>
</svg>